Coordinates
version=1
nRows=9
nColumns=24
inDegrees=yes

Units are S.I. units (second, meters, Newtons, ...)
Angles are in degrees.

endheader
time	pelvis_tilt	pelvis_list	pelvis_rotation	pelvis_tx	pelvis_ty	pelvis_tz	hip_flexion_r	hip_adduction_r	hip_rotation_r	knee_angle_r	ankle_angle_r	subtalar_angle_r	mtp_angle_r	hip_flexion_l	hip_adduction_l	hip_rotation_l	knee_angle_l	ankle_angle_l	subtalar_angle_l	mtp_angle_l	lumbar_extension	lumbar_bending	lumbar_rotation
      0.60000000	     -0.12069941	      1.65957649	      4.06346336	     -0.70453640	      0.98868832	      0.27064711	     22.63690964	     -0.76286082	     -1.60016770	     -3.87057569	      1.83183474	    -15.36145472	      8.99704886	    -19.48899857	      2.73645767	      6.97821048	     -9.80040449	     10.36077034	     -9.51274852	     10.61078663	     -1.53551628	     -2.49162648	     -7.06917013
      0.60416667	     -0.14408884	      1.50856421	      4.10103205	     -0.69796628	      0.98841169	      0.27113295	     22.62471203	     -0.54262578	     -1.40010014	     -4.45335368	      1.43402865	    -15.67982323	      8.94682581	    -19.37877208	      2.53394539	      6.76314425	    -10.68271453	     10.20035358	     -9.23029403	     10.71500993	     -1.39437863	     -2.29345264	     -7.15966422
      0.60833333	     -0.15365761	      1.34571503	      4.12931568	     -0.69136509	      0.98818806	      0.27163248	     22.59656589	     -0.30727118	     -1.22883852	     -5.04115928	      1.02020071	    -15.95750242	      8.91126080	    -19.25399397	      2.31767862	      6.49417028	    -11.61732932	     10.01595258	     -8.89833472	     10.87189657	     -1.26292186	     -2.07157655	     -7.22625435
      0.61250000	     -0.15354508	      1.17543242	      4.14739546	     -0.68475249	      0.98800472	      0.27215746	     22.56399592	     -0.06021718	     -1.07725806	     -5.64649030	      0.60811437	    -16.21384808	      8.88579991	    -19.11216337	      2.09273816	      6.18436774	    -12.60259408	      9.79188066	     -8.54154096	     11.09502192	     -1.14630419	     -1.84569730	     -7.27961962
      0.61666667	     -0.14374643	      1.00532778	      4.15221565	     -0.67813193	      0.98786576	      0.27270143	     22.53370136	      0.18946459	     -0.95167947	     -6.28302579	      0.20424882	    -16.44332716	      8.86695283	    -18.95241740	      1.86921410	      5.85110911	    -13.63344646	      9.53266424	     -8.16279213	     11.41849766	     -1.04047461	     -1.61356628	     -7.31965818
      0.62083333	     -0.11134812	      0.82057947	      4.15235643	     -0.67148880	      0.98779898	      0.27325716	     22.46354140	      0.45585276	     -0.83680747	     -6.89245356	     -0.18831968	    -16.63061175	      8.74803197	    -18.78978792	      1.62388642	      5.47442098	    -14.69798386	      9.12479320	     -7.89353686	     16.60026852	     -0.95406932	     -1.36058473	     -7.31778537
      0.62500000	     -0.12575019	      0.65541450	      4.15840701	     -0.66486456	      0.98771300	      0.27381077	     22.46368535	      0.69136778	     -0.77858497	     -7.55089372	     -0.53020645	    -16.73206407	      8.74773823	    -18.53865349	      1.40378673	      5.13346415	    -15.83558384	      8.74065433	     -7.58438210	     16.65776253	     -0.81051925	     -1.14570181	     -7.36302706
      0.62916667	     -0.11103780	      0.47735327	      4.14431201	     -0.65824796	      0.98768972	      0.27440201	     22.43541997	      0.94797552	     -0.71508392	     -8.21616996	     -0.85583010	    -16.83733084	      8.74680753	    -18.28458668	      1.16409627	      4.72622427	    -17.03001107	      8.31153924	     -7.21694419	     16.77635439	     -0.70786199	     -0.90438214	     -7.36267618
      0.63333333	     -0.08921537	      0.30218862	      4.12317093	     -0.65165618	      0.98770609	      0.27500908	     22.40897133	      1.20103753	     -0.68118203	     -8.90416160	     -1.13647552	    -16.91198317	      8.74394919	    -18.00437508	      0.92411814	      4.30304130	    -18.27807263	      7.83138366	     -6.86340692	     16.95468730	     -0.61313304	     -0.66758085	     -7.35390965
